<?xml version="1.0" encoding="utf-8"?>
<svg viewBox="0 0 500 500" xmlns="http://www.w3.org/2000/svg">
  <path d="M 497.197 250 L 497.196 257.809 L 497.194 261.814 L 497.189 265.047 L 497.186 267.87 L 497.179 270.414 L 497.172 272.761 L 497.164 274.957 L 497.154 277.027 L 497.142 278.995 L 497.127 280.877 L 497.113 282.684 L 497.097 284.427 L 497.078 286.11 L 497.06 287.742 L 497.04 289.328 L 497.02 290.872 L 496.996 292.377 L 496.971 293.847 L 496.946 295.284 L 496.919 296.69 L 496.891 298.068 L 496.861 299.42 L 496.828 300.746 L 496.796 302.049 L 496.762 303.333 L 496.728 304.592 L 496.691 305.835 L 496.653 307.056 L 496.612 308.263 L 496.572 309.449 L 496.53 310.622 L 496.485 311.778 L 496.441 312.921 L 496.394 314.047 L 496.346 315.16 L 496.296 316.263 L 496.245 317.349 L 496.195 318.425 L 496.14 319.491 L 496.086 320.544 L 496.029 321.585 L 495.973 322.617 L 495.912 323.638 L 495.851 324.651 L 495.791 325.652 L 495.727 326.645 L 495.662 327.629 L 495.595 328.605 L 495.529 329.57 L 495.461 330.529 L 495.39 331.478 L 495.32 332.42 L 495.244 333.355 L 495.169 334.282 L 495.095 335.201 L 495.018 336.113 L 494.94 337.019 L 494.859 337.919 L 494.778 338.811 L 494.695 339.695 L 494.611 340.575 L 494.526 341.448 L 494.44 342.314 L 494.351 343.176 L 494.262 344.031 L 494.169 344.881 L 494.078 345.725 L 493.984 346.562 L 493.888 347.395 L 493.791 348.223 L 493.692 349.044 L 493.594 349.862 L 493.493 350.673 L 493.39 351.48 L 493.287 352.283 L 493.181 353.08 L 493.075 353.873 L 492.966 354.661 L 492.857 355.444 L 492.747 356.225 L 492.635 356.997 L 492.522 357.767 L 492.407 358.535 L 492.29 359.296 L 492.173 360.052 L 492.054 360.807 L 491.933 361.555 L 491.812 362.3 L 491.689 363.041 L 491.564 363.779 L 491.436 364.514 L 491.309 365.243 L 491.182 365.969 L 491.051 366.691 L 490.918 367.41 L 490.784 368.124 L 490.652 368.837 L 490.514 369.544 L 490.379 370.249 L 490.24 370.949 L 490.1 371.648 L 489.958 372.342 L 489.816 373.032 L 489.671 373.72 L 489.525 374.405 L 489.378 375.086 L 489.229 375.764 L 489.079 376.438 L 488.928 377.11 L 488.775 377.778 L 488.622 378.444 L 488.466 379.106 L 488.308 379.766 L 488.151 380.422 L 487.99 381.076 L 487.829 381.725 L 487.667 382.373 L 487.504 383.019 L 487.338 383.661 L 487.17 384.301 L 487.003 384.936 L 486.832 385.57 L 486.662 386.199 L 486.488 386.827 L 486.315 387.452 L 486.139 388.076 L 485.962 388.696 L 485.784 389.313 L 485.605 389.928 L 485.422 390.54 L 485.241 391.15 L 485.058 391.757 L 484.872 392.36 L 484.686 392.964 L 484.497 393.562 L 484.309 394.16 L 484.118 394.754 L 483.925 395.344 L 483.729 395.936 L 483.536 396.524 L 483.338 397.109 L 483.141 397.689 L 482.943 398.269 L 482.74 398.846 L 482.539 399.423 L 482.336 399.994 L 482.13 400.565 L 481.922 401.135 L 481.714 401.7 L 481.506 402.265 L 481.294 402.825 L 481.082 403.384 L 480.868 403.941 L 480.652 404.496 L 480.437 405.049 L 480.219 405.6 L 479.998 406.147 L 479.777 406.693 L 479.555 407.238 L 479.331 407.779 L 479.106 408.321 L 478.878 408.857 L 478.652 409.392 L 478.422 409.925 L 478.191 410.455 L 477.958 410.986 L 477.725 411.512 L 477.488 412.037 L 477.252 412.56 L 477.014 413.081 L 476.774 413.599 L 476.533 414.117 L 476.292 414.632 L 476.047 415.145 L 475.801 415.656 L 475.555 416.164 L 475.306 416.67 L 475.057 417.175 L 474.807 417.677 L 474.552 418.18 L 474.297 418.676 L 474.044 419.174 L 473.786 419.669 L 473.526 420.163 L 473.266 420.654 L 473.006 421.144 L 472.744 421.631 L 472.477 422.117 L 472.214 422.599 L 471.945 423.081 L 471.676 423.562 L 471.406 424.04 L 471.134 424.516 L 470.861 424.991 L 470.586 425.463 L 470.31 425.933 L 470.033 426.403 L 469.755 426.869 L 469.473 427.334 L 469.192 427.798 L 468.908 428.259 L 468.623 428.718 L 468.337 429.176 L 468.05 429.632 L 467.76 430.088 L 467.469 430.538 L 467.177 430.99 L 466.882 431.438 L 466.587 431.886 L 466.29 432.332 L 465.992 432.776 L 465.693 433.217 L 465.39 433.658 L 465.088 434.096 L 464.783 434.533 L 464.478 434.967 L 464.17 435.401 L 463.861 435.834 L 463.553 436.263 L 463.239 436.69 L 462.926 437.116 L 462.612 437.542 L 462.294 437.964 L 461.976 438.386 L 461.657 438.806 L 461.337 439.223 L 461.013 439.639 L 460.69 440.055 L 460.366 440.467 L 460.036 440.878 L 459.71 441.288 L 459.379 441.695 L 459.048 442.103 L 458.715 442.507 L 458.38 442.91 L 458.043 443.31 L 457.706 443.71 L 457.367 444.107 L 457.026 444.505 L 456.682 444.9 L 456.34 445.294 L 455.995 445.683 L 455.648 446.075 L 455.299 446.462 L 454.949 446.848 L 454.597 447.233 L 454.243 447.616 L 453.888 447.998 L 453.533 448.377 L 453.176 448.757 L 452.815 449.134 L 452.455 449.509 L 452.092 449.882 L 451.727 450.256 L 451.362 450.625 L 450.995 450.995 L 450.625 451.362 L 450.256 451.727 L 449.882 452.092 L 449.509 452.455 L 449.134 452.815 L 448.757 453.176 L 448.377 453.533 L 447.998 453.888 L 447.616 454.243 L 447.233 454.597 L 446.848 454.949 L 446.462 455.299 L 446.075 455.648 L 445.683 455.995 L 445.294 456.34 L 444.9 456.682 L 444.505 457.026 L 444.107 457.367 L 443.71 457.706 L 443.31 458.043 L 442.91 458.38 L 442.507 458.715 L 442.103 459.048 L 441.695 459.379 L 441.288 459.71 L 440.878 460.036 L 440.467 460.366 L 440.055 460.69 L 439.639 461.013 L 439.223 461.337 L 438.806 461.657 L 438.386 461.976 L 437.964 462.294 L 437.542 462.612 L 437.116 462.926 L 436.69 463.239 L 436.263 463.553 L 435.834 463.861 L 435.401 464.17 L 434.967 464.478 L 434.533 464.783 L 434.096 465.088 L 433.658 465.39 L 433.217 465.693 L 432.776 465.992 L 432.332 466.29 L 431.886 466.587 L 431.438 466.882 L 430.99 467.177 L 430.538 467.469 L 430.088 467.76 L 429.632 468.05 L 429.176 468.337 L 428.718 468.623 L 428.259 468.908 L 427.798 469.192 L 427.334 469.473 L 426.869 469.755 L 426.403 470.033 L 425.933 470.31 L 425.463 470.586 L 424.991 470.861 L 424.516 471.134 L 424.04 471.406 L 423.562 471.676 L 423.081 471.945 L 422.599 472.214 L 422.117 472.477 L 421.631 472.744 L 421.144 473.006 L 420.654 473.266 L 420.163 473.526 L 419.669 473.786 L 419.174 474.044 L 418.676 474.297 L 418.18 474.552 L 417.677 474.807 L 417.175 475.057 L 416.67 475.306 L 416.164 475.555 L 415.656 475.801 L 415.145 476.047 L 414.632 476.292 L 414.116 476.533 L 413.599 476.774 L 413.081 477.014 L 412.56 477.252 L 412.037 477.488 L 411.512 477.725 L 410.986 477.958 L 410.455 478.191 L 409.925 478.422 L 409.392 478.652 L 408.857 478.878 L 408.321 479.106 L 407.779 479.331 L 407.238 479.555 L 406.693 479.777 L 406.147 479.998 L 405.6 480.219 L 405.049 480.437 L 404.496 480.652 L 403.941 480.868 L 403.384 481.082 L 402.825 481.294 L 402.265 481.506 L 401.7 481.714 L 401.135 481.922 L 400.565 482.13 L 399.994 482.336 L 399.423 482.539 L 398.846 482.74 L 398.269 482.943 L 397.689 483.141 L 397.109 483.338 L 396.524 483.536 L 395.936 483.729 L 395.344 483.925 L 394.754 484.118 L 394.16 484.309 L 393.562 484.497 L 392.964 484.686 L 392.36 484.872 L 391.757 485.058 L 391.15 485.241 L 390.54 485.422 L 389.928 485.605 L 389.313 485.784 L 388.696 485.962 L 388.076 486.139 L 387.452 486.315 L 386.827 486.488 L 386.199 486.662 L 385.57 486.832 L 384.936 487.003 L 384.301 487.17 L 383.661 487.338 L 383.019 487.504 L 382.373 487.667 L 381.725 487.829 L 381.076 487.99 L 380.422 488.151 L 379.766 488.308 L 379.106 488.466 L 378.444 488.622 L 377.778 488.775 L 377.11 488.928 L 376.438 489.079 L 375.764 489.229 L 375.086 489.378 L 374.405 489.525 L 373.72 489.671 L 373.032 489.816 L 372.342 489.958 L 371.648 490.1 L 370.949 490.24 L 370.249 490.379 L 369.544 490.514 L 368.837 490.652 L 368.124 490.784 L 367.41 490.918 L 366.691 491.051 L 365.969 491.182 L 365.243 491.309 L 364.514 491.436 L 363.779 491.564 L 363.041 491.689 L 362.3 491.812 L 361.555 491.933 L 360.807 492.054 L 360.052 492.173 L 359.296 492.29 L 358.535 492.407 L 357.767 492.522 L 356.997 492.635 L 356.225 492.747 L 355.444 492.857 L 354.661 492.966 L 353.873 493.075 L 353.08 493.181 L 352.283 493.287 L 351.48 493.39 L 350.673 493.493 L 349.862 493.594 L 349.044 493.692 L 348.223 493.791 L 347.395 493.888 L 346.562 493.984 L 345.725 494.078 L 344.881 494.169 L 344.031 494.262 L 343.176 494.351 L 342.314 494.44 L 341.448 494.526 L 340.575 494.611 L 339.695 494.695 L 338.811 494.778 L 337.919 494.859 L 337.019 494.94 L 336.113 495.018 L 335.201 495.095 L 334.282 495.169 L 333.355 495.244 L 332.42 495.32 L 331.478 495.39 L 330.529 495.461 L 329.57 495.529 L 328.605 495.595 L 327.629 495.662 L 326.645 495.727 L 325.652 495.791 L 324.651 495.851 L 323.638 495.912 L 322.617 495.973 L 321.585 496.029 L 320.544 496.086 L 319.491 496.14 L 318.425 496.195 L 317.349 496.245 L 316.263 496.296 L 315.16 496.346 L 314.047 496.394 L 312.919 496.441 L 311.778 496.485 L 310.622 496.53 L 309.449 496.572 L 308.263 496.612 L 307.056 496.653 L 305.835 496.691 L 304.592 496.728 L 303.333 496.762 L 302.049 496.796 L 300.746 496.828 L 299.42 496.861 L 298.068 496.891 L 296.69 496.919 L 295.284 496.946 L 293.847 496.971 L 292.377 496.996 L 290.872 497.02 L 289.328 497.04 L 287.742 497.06 L 286.11 497.078 L 284.427 497.097 L 282.684 497.113 L 280.877 497.127 L 278.995 497.142 L 277.027 497.154 L 274.957 497.164 L 272.761 497.172 L 270.414 497.179 L 267.87 497.186 L 265.047 497.189 L 261.814 497.194 L 257.809 497.196 L 250 497.197 L 242.191 497.196 L 238.186 497.194 L 234.95 497.189 L 232.13 497.186 L 229.584 497.179 L 227.237 497.172 L 225.043 497.164 L 222.973 497.154 L 221.006 497.142 L 219.123 497.127 L 217.315 497.113 L 215.573 497.097 L 213.89 497.078 L 212.258 497.06 L 210.672 497.04 L 209.128 497.02 L 207.623 496.996 L 206.151 496.971 L 204.715 496.946 L 203.31 496.919 L 201.932 496.891 L 200.58 496.861 L 199.252 496.828 L 197.948 496.796 L 196.667 496.762 L 195.405 496.728 L 194.165 496.691 L 192.944 496.653 L 191.737 496.612 L 190.551 496.572 L 189.378 496.53 L 188.222 496.485 L 187.079 496.441 L 185.953 496.394 L 184.838 496.346 L 183.737 496.296 L 182.651 496.245 L 181.575 496.195 L 180.509 496.14 L 179.456 496.086 L 178.415 496.029 L 177.381 495.973 L 176.36 495.912 L 175.349 495.851 L 174.347 495.791 L 173.355 495.727 L 172.371 495.662 L 171.396 495.595 L 170.43 495.529 L 169.471 495.461 L 168.522 495.39 L 167.58 495.32 L 166.645 495.244 L 165.718 495.169 L 164.798 495.095 L 163.885 495.018 L 162.981 494.94 L 162.081 494.859 L 161.189 494.778 L 160.304 494.695 L 159.425 494.611 L 158.551 494.526 L 157.684 494.44 L 156.824 494.351 L 155.968 494.262 L 155.119 494.169 L 154.275 494.078 L 153.438 493.984 L 152.605 493.888 L 151.777 493.791 L 150.956 493.692 L 150.138 493.594 L 149.325 493.493 L 148.518 493.39 L 147.717 493.287 L 146.92 493.181 L 146.127 493.075 L 145.339 492.966 L 144.555 492.857 L 143.775 492.747 L 143.003 492.635 L 142.233 492.522 L 141.465 492.407 L 140.704 492.29 L 139.948 492.173 L 139.193 492.054 L 138.445 491.933 L 137.699 491.812 L 136.958 491.689 L 136.221 491.564 L 135.486 491.436 L 134.757 491.309 L 134.031 491.182 L 133.309 491.051 L 132.59 490.918 L 131.874 490.784 L 131.163 490.652 L 130.456 490.514 L 129.751 490.379 L 129.051 490.24 L 128.352 490.1 L 127.658 489.958 L 126.968 489.816 L 126.28 489.671 L 125.595 489.525 L 124.914 489.378 L 124.236 489.229 L 123.562 489.079 L 122.89 488.928 L 122.221 488.775 L 121.556 488.622 L 120.894 488.466 L 120.234 488.308 L 119.578 488.151 L 118.924 487.99 L 118.275 487.829 L 117.625 487.667 L 116.981 487.504 L 116.339 487.338 L 115.699 487.17 L 115.064 487.003 L 114.43 486.832 L 113.801 486.662 L 113.171 486.488 L 112.548 486.315 L 111.924 486.139 L 111.304 485.962 L 110.685 485.784 L 110.072 485.605 L 109.46 485.422 L 108.85 485.241 L 108.243 485.058 L 107.638 484.872 L 107.037 484.686 L 106.438 484.497 L 105.84 484.309 L 105.246 484.118 L 104.653 483.925 L 104.064 483.729 L 103.476 483.536 L 102.891 483.338 L 102.311 483.141 L 101.73 482.943 L 101.153 482.74 L 100.577 482.539 L 100.003 482.336 L 99.433 482.13 L 98.865 481.922 L 98.299 481.714 L 97.735 481.506 L 97.175 481.294 L 96.616 481.082 L 96.059 480.868 L 95.504 480.652 L 94.951 480.437 L 94.4 480.219 L 93.853 479.998 L 93.307 479.777 L 92.762 479.555 L 92.221 479.331 L 91.679 479.106 L 91.143 478.878 L 90.608 478.652 L 90.075 478.422 L 89.545 478.191 L 89.014 477.958 L 88.488 477.725 L 87.963 477.488 L 87.44 477.252 L 86.917 477.014 L 86.399 476.774 L 85.883 476.533 L 85.368 476.292 L 84.855 476.047 L 84.344 475.801 L 83.836 475.555 L 83.33 475.306 L 82.825 475.057 L 82.323 474.807 L 81.82 474.552 L 81.322 474.297 L 80.826 474.044 L 80.331 473.786 L 79.837 473.526 L 79.346 473.266 L 78.856 473.006 L 78.369 472.744 L 77.883 472.477 L 77.398 472.214 L 76.919 471.945 L 76.438 471.676 L 75.96 471.406 L 75.484 471.134 L 75.009 470.861 L 74.537 470.586 L 74.067 470.31 L 73.597 470.033 L 73.131 469.755 L 72.666 469.473 L 72.202 469.192 L 71.741 468.908 L 71.282 468.623 L 70.824 468.337 L 70.366 468.05 L 69.912 467.76 L 69.46 467.469 L 69.01 467.177 L 68.56 466.882 L 68.114 466.587 L 67.668 466.29 L 67.224 465.992 L 66.783 465.693 L 66.342 465.39 L 65.904 465.088 L 65.467 464.783 L 65.033 464.478 L 64.599 464.17 L 64.166 463.861 L 63.737 463.553 L 63.31 463.239 L 62.881 462.926 L 62.458 462.612 L 62.036 462.294 L 61.614 461.976 L 61.194 461.657 L 60.777 461.337 L 60.361 461.013 L 59.945 460.69 L 59.533 460.366 L 59.121 460.036 L 58.712 459.71 L 58.305 459.379 L 57.897 459.048 L 57.493 458.715 L 57.09 458.38 L 56.689 458.043 L 56.288 457.706 L 55.891 457.367 L 55.495 457.026 L 55.1 456.682 L 54.706 456.34 L 54.317 455.995 L 53.925 455.648 L 53.538 455.299 L 53.152 454.949 L 52.767 454.597 L 52.384 454.243 L 52.002 453.888 L 51.621 453.533 L 51.243 453.176 L 50.866 452.815 L 50.491 452.455 L 50.118 452.092 L 49.744 451.727 L 49.375 451.362 L 49.005 450.995 L 48.638 450.625 L 48.273 450.256 L 47.908 449.882 L 47.545 449.509 L 47.183 449.134 L 46.824 448.757 L 46.467 448.377 L 46.11 447.998 L 45.757 447.616 L 45.403 447.233 L 45.051 446.848 L 44.701 446.462 L 44.352 446.075 L 44.005 445.683 L 43.66 445.294 L 43.315 444.9 L 42.974 444.505 L 42.633 444.107 L 42.294 443.71 L 41.957 443.31 L 41.62 442.91 L 41.285 442.507 L 40.951 442.103 L 40.621 441.695 L 40.29 441.288 L 39.964 440.878 L 39.634 440.467 L 39.31 440.055 L 38.985 439.639 L 38.663 439.223 L 38.343 438.806 L 38.021 438.386 L 37.705 437.964 L 37.388 437.542 L 37.074 437.116 L 36.761 436.69 L 36.447 436.263 L 36.139 435.834 L 35.83 435.401 L 35.522 434.967 L 35.217 434.533 L 34.912 434.096 L 34.61 433.658 L 34.307 433.217 L 34.008 432.776 L 33.71 432.332 L 33.413 431.886 L 33.116 431.438 L 32.823 430.99 L 32.531 430.538 L 32.24 430.088 L 31.95 429.632 L 31.663 429.176 L 31.377 428.718 L 31.092 428.259 L 30.807 427.798 L 30.525 427.334 L 30.245 426.869 L 29.967 426.403 L 29.687 425.933 L 29.411 425.463 L 29.139 424.991 L 28.864 424.516 L 28.594 424.04 L 28.323 423.562 L 28.055 423.081 L 27.787 422.599 L 27.52 422.117 L 27.256 421.631 L 26.994 421.144 L 26.734 420.654 L 26.471 420.163 L 26.214 419.669 L 25.956 419.174 L 25.703 418.676 L 25.446 418.18 L 25.193 417.677 L 24.943 417.175 L 24.694 416.67 L 24.445 416.164 L 24.199 415.656 L 23.953 415.145 L 23.708 414.632 L 23.467 414.117 L 23.224 413.599 L 22.986 413.081 L 22.746 412.56 L 22.51 412.037 L 22.273 411.512 L 22.042 410.986 L 21.809 410.455 L 21.578 409.925 L 21.348 409.392 L 21.12 408.857 L 20.894 408.321 L 20.667 407.779 L 20.445 407.238 L 20.222 406.693 L 20.002 406.147 L 19.781 405.6 L 19.563 405.049 L 19.347 404.496 L 19.132 403.941 L 18.918 403.384 L 18.706 402.825 L 18.494 402.265 L 18.286 401.7 L 18.076 401.135 L 17.87 400.565 L 17.664 399.994 L 17.461 399.423 L 17.26 398.846 L 17.057 398.269 L 16.858 397.689 L 16.66 397.109 L 16.464 396.524 L 16.271 395.936 L 16.075 395.344 L 15.882 394.754 L 15.691 394.16 L 15.503 393.562 L 15.314 392.964 L 15.126 392.36 L 14.942 391.757 L 14.759 391.15 L 14.575 390.54 L 14.395 389.928 L 14.216 389.313 L 14.036 388.696 L 13.861 388.076 L 13.685 387.452 L 13.512 386.827 L 13.338 386.199 L 13.168 385.57 L 12.997 384.936 L 12.83 384.301 L 12.662 383.661 L 12.496 383.019 L 12.333 382.373 L 12.169 381.725 L 12.008 381.076 L 11.849 380.422 L 11.692 379.766 L 11.534 379.106 L 11.378 378.444 L 11.224 377.778 L 11.072 377.11 L 10.921 376.438 L 10.769 375.764 L 10.622 375.086 L 10.475 374.405 L 10.329 373.72 L 10.184 373.032 L 10.042 372.342 L 9.9 371.648 L 9.76 370.949 L 9.621 370.249 L 9.484 369.544 L 9.348 368.837 L 9.213 368.124 L 9.08 367.41 L 8.949 366.691 L 8.817 365.969 L 8.691 365.243 L 8.564 364.514 L 8.436 363.779 L 8.311 363.041 L 8.188 362.3 L 8.067 361.555 L 7.946 360.807 L 7.827 360.052 L 7.71 359.296 L 7.593 358.535 L 7.478 357.767 L 7.365 356.997 L 7.252 356.225 L 7.143 355.444 L 7.032 354.661 L 6.925 353.873 L 6.818 353.08 L 6.713 352.283 L 6.61 351.48 L 6.507 350.673 L 6.406 349.862 L 6.308 349.044 L 6.209 348.223 L 6.112 347.395 L 6.016 346.562 L 5.922 345.725 L 5.83 344.881 L 5.738 344.031 L 5.649 343.176 L 5.56 342.314 L 5.474 341.448 L 5.389 340.575 L 5.305 339.695 L 5.222 338.811 L 5.141 337.919 L 5.06 337.019 L 4.982 336.113 L 4.905 335.201 L 4.828 334.282 L 4.754 333.355 L 4.68 332.42 L 4.61 331.478 L 4.539 330.529 L 4.471 329.57 L 4.405 328.605 L 4.338 327.629 L 4.273 326.645 L 4.209 325.652 L 4.149 324.651 L 4.088 323.638 L 4.027 322.617 L 3.971 321.585 L 3.914 320.544 L 3.859 319.491 L 3.805 318.425 L 3.755 317.349 L 3.703 316.263 L 3.654 315.16 L 3.606 314.047 L 3.559 312.921 L 3.512 311.778 L 3.47 310.622 L 3.428 309.449 L 3.388 308.263 L 3.347 307.056 L 3.309 305.835 L 3.272 304.592 L 3.237 303.333 L 3.202 302.049 L 3.17 300.746 L 3.14 299.42 L 3.109 298.068 L 3.081 296.69 L 3.052 295.284 L 3.029 293.847 L 3.004 292.377 L 2.98 290.872 L 2.96 289.328 L 2.94 287.742 L 2.92 286.11 L 2.903 284.427 L 2.887 282.684 L 2.873 280.877 L 2.858 278.995 L 2.846 277.027 L 2.836 274.957 L 2.828 272.761 L 2.821 270.414 L 2.814 267.87 L 2.808 265.047 L 2.806 261.814 L 2.804 257.809 L 2.803 250 L 2.804 242.191 L 2.806 238.186 L 2.808 234.95 L 2.814 232.13 L 2.821 229.584 L 2.828 227.237 L 2.836 225.043 L 2.846 222.973 L 2.858 221.006 L 2.873 219.123 L 2.887 217.316 L 2.903 215.573 L 2.92 213.89 L 2.94 212.258 L 2.96 210.672 L 2.98 209.128 L 3.004 207.623 L 3.029 206.151 L 3.052 204.715 L 3.081 203.31 L 3.109 201.932 L 3.14 200.58 L 3.17 199.252 L 3.202 197.948 L 3.237 196.667 L 3.272 195.405 L 3.309 194.165 L 3.347 192.944 L 3.388 191.737 L 3.428 190.551 L 3.47 189.378 L 3.512 188.222 L 3.559 187.079 L 3.606 185.953 L 3.654 184.838 L 3.703 183.737 L 3.755 182.651 L 3.805 181.575 L 3.859 180.509 L 3.914 179.456 L 3.971 178.415 L 4.027 177.381 L 4.088 176.36 L 4.149 175.349 L 4.209 174.347 L 4.273 173.355 L 4.338 172.371 L 4.405 171.396 L 4.471 170.43 L 4.539 169.471 L 4.61 168.522 L 4.68 167.58 L 4.754 166.645 L 4.828 165.718 L 4.905 164.798 L 4.982 163.885 L 5.06 162.981 L 5.141 162.081 L 5.222 161.189 L 5.305 160.305 L 5.389 159.425 L 5.474 158.551 L 5.56 157.684 L 5.649 156.824 L 5.738 155.968 L 5.83 155.119 L 5.922 154.275 L 6.016 153.438 L 6.112 152.605 L 6.209 151.777 L 6.308 150.956 L 6.406 150.138 L 6.507 149.325 L 6.61 148.518 L 6.713 147.717 L 6.818 146.92 L 6.925 146.127 L 7.032 145.339 L 7.143 144.555 L 7.252 143.775 L 7.365 143.003 L 7.478 142.233 L 7.593 141.465 L 7.71 140.704 L 7.827 139.948 L 7.946 139.193 L 8.067 138.445 L 8.188 137.699 L 8.311 136.958 L 8.436 136.221 L 8.564 135.486 L 8.691 134.757 L 8.817 134.031 L 8.949 133.309 L 9.08 132.59 L 9.213 131.874 L 9.348 131.163 L 9.484 130.456 L 9.621 129.751 L 9.76 129.051 L 9.9 128.352 L 10.042 127.658 L 10.184 126.968 L 10.329 126.28 L 10.475 125.595 L 10.622 124.914 L 10.769 124.236 L 10.921 123.562 L 11.072 122.89 L 11.224 122.221 L 11.378 121.556 L 11.534 120.894 L 11.692 120.234 L 11.849 119.578 L 12.008 118.924 L 12.169 118.275 L 12.333 117.625 L 12.496 116.981 L 12.662 116.339 L 12.83 115.699 L 12.997 115.064 L 13.168 114.43 L 13.338 113.801 L 13.512 113.171 L 13.685 112.548 L 13.861 111.924 L 14.036 111.304 L 14.216 110.685 L 14.395 110.072 L 14.575 109.46 L 14.759 108.85 L 14.942 108.243 L 15.126 107.638 L 15.314 107.037 L 15.503 106.438 L 15.691 105.84 L 15.882 105.246 L 16.075 104.653 L 16.271 104.064 L 16.464 103.476 L 16.66 102.891 L 16.858 102.311 L 17.057 101.73 L 17.26 101.153 L 17.461 100.577 L 17.664 100.003 L 17.87 99.433 L 18.076 98.865 L 18.286 98.299 L 18.494 97.735 L 18.706 97.175 L 18.918 96.616 L 19.132 96.059 L 19.347 95.504 L 19.563 94.951 L 19.781 94.4 L 20.002 93.853 L 20.222 93.307 L 20.445 92.762 L 20.667 92.221 L 20.894 91.679 L 21.12 91.143 L 21.348 90.608 L 21.578 90.075 L 21.809 89.545 L 22.042 89.014 L 22.273 88.488 L 22.51 87.963 L 22.746 87.44 L 22.986 86.917 L 23.224 86.401 L 23.467 85.884 L 23.708 85.368 L 23.953 84.855 L 24.199 84.344 L 24.445 83.836 L 24.694 83.33 L 24.943 82.825 L 25.193 82.323 L 25.446 81.82 L 25.703 81.322 L 25.956 80.826 L 26.214 80.331 L 26.471 79.837 L 26.734 79.346 L 26.994 78.856 L 27.256 78.369 L 27.52 77.883 L 27.787 77.398 L 28.055 76.919 L 28.323 76.438 L 28.594 75.96 L 28.864 75.484 L 29.139 75.009 L 29.411 74.537 L 29.687 74.067 L 29.967 73.597 L 30.245 73.131 L 30.525 72.666 L 30.807 72.202 L 31.092 71.741 L 31.377 71.282 L 31.663 70.824 L 31.95 70.366 L 32.24 69.912 L 32.531 69.46 L 32.823 69.01 L 33.116 68.56 L 33.413 68.114 L 33.71 67.668 L 34.008 67.224 L 34.307 66.783 L 34.61 66.342 L 34.912 65.904 L 35.217 65.467 L 35.522 65.033 L 35.83 64.599 L 36.139 64.166 L 36.447 63.737 L 36.761 63.31 L 37.074 62.881 L 37.388 62.458 L 37.705 62.036 L 38.021 61.614 L 38.343 61.194 L 38.663 60.777 L 38.985 60.361 L 39.31 59.945 L 39.634 59.533 L 39.964 59.121 L 40.29 58.712 L 40.621 58.305 L 40.951 57.897 L 41.285 57.493 L 41.62 57.09 L 41.957 56.689 L 42.294 56.288 L 42.633 55.891 L 42.974 55.495 L 43.315 55.1 L 43.66 54.706 L 44.005 54.317 L 44.352 53.925 L 44.701 53.538 L 45.051 53.152 L 45.403 52.767 L 45.757 52.384 L 46.11 52.002 L 46.467 51.621 L 46.824 51.243 L 47.183 50.866 L 47.545 50.491 L 47.908 50.118 L 48.273 49.744 L 48.638 49.375 L 49.005 49.005 L 49.375 48.638 L 49.744 48.273 L 50.118 47.908 L 50.491 47.545 L 50.866 47.183 L 51.243 46.824 L 51.621 46.467 L 52.002 46.11 L 52.384 45.757 L 52.767 45.403 L 53.152 45.051 L 53.538 44.701 L 53.925 44.352 L 54.317 44.005 L 54.706 43.66 L 55.1 43.315 L 55.495 42.974 L 55.891 42.633 L 56.288 42.294 L 56.689 41.957 L 57.09 41.62 L 57.493 41.285 L 57.897 40.951 L 58.305 40.621 L 58.712 40.29 L 59.121 39.964 L 59.533 39.634 L 59.945 39.31 L 60.361 38.985 L 60.777 38.663 L 61.194 38.343 L 61.614 38.021 L 62.036 37.705 L 62.458 37.388 L 62.881 37.074 L 63.31 36.761 L 63.737 36.447 L 64.166 36.139 L 64.599 35.83 L 65.033 35.522 L 65.467 35.217 L 65.904 34.912 L 66.342 34.61 L 66.783 34.307 L 67.224 34.008 L 67.668 33.71 L 68.114 33.413 L 68.56 33.116 L 69.01 32.823 L 69.46 32.531 L 69.912 32.24 L 70.366 31.95 L 70.824 31.663 L 71.282 31.377 L 71.741 31.092 L 72.202 30.807 L 72.666 30.525 L 73.131 30.245 L 73.597 29.967 L 74.067 29.687 L 74.537 29.411 L 75.009 29.139 L 75.484 28.864 L 75.96 28.594 L 76.438 28.323 L 76.919 28.055 L 77.398 27.787 L 77.883 27.52 L 78.369 27.256 L 78.856 26.994 L 79.346 26.734 L 79.837 26.471 L 80.331 26.214 L 80.826 25.956 L 81.322 25.703 L 81.82 25.446 L 82.323 25.193 L 82.825 24.943 L 83.33 24.694 L 83.836 24.445 L 84.344 24.199 L 84.855 23.953 L 85.368 23.708 L 85.883 23.467 L 86.399 23.224 L 86.917 22.986 L 87.44 22.746 L 87.963 22.51 L 88.488 22.273 L 89.014 22.042 L 89.545 21.809 L 90.075 21.578 L 90.608 21.348 L 91.143 21.12 L 91.679 20.894 L 92.221 20.667 L 92.762 20.445 L 93.307 20.222 L 93.853 20.002 L 94.4 19.781 L 94.951 19.563 L 95.504 19.347 L 96.059 19.132 L 96.616 18.918 L 97.175 18.706 L 97.735 18.494 L 98.299 18.286 L 98.865 18.076 L 99.433 17.87 L 100.003 17.664 L 100.577 17.461 L 101.153 17.26 L 101.73 17.057 L 102.311 16.858 L 102.891 16.66 L 103.476 16.464 L 104.064 16.271 L 104.653 16.075 L 105.246 15.882 L 105.84 15.691 L 106.438 15.503 L 107.037 15.314 L 107.638 15.126 L 108.243 14.942 L 108.85 14.759 L 109.46 14.575 L 110.072 14.395 L 110.685 14.216 L 111.304 14.036 L 111.924 13.861 L 112.548 13.685 L 113.171 13.512 L 113.801 13.338 L 114.43 13.168 L 115.064 12.997 L 115.699 12.83 L 116.339 12.662 L 116.981 12.496 L 117.625 12.333 L 118.275 12.169 L 118.924 12.008 L 119.578 11.849 L 120.234 11.692 L 120.894 11.534 L 121.556 11.378 L 122.221 11.224 L 122.89 11.072 L 123.562 10.921 L 124.236 10.769 L 124.914 10.622 L 125.595 10.475 L 126.28 10.329 L 126.968 10.184 L 127.658 10.042 L 128.352 9.9 L 129.051 9.76 L 129.751 9.621 L 130.456 9.484 L 131.163 9.348 L 131.874 9.213 L 132.59 9.08 L 133.309 8.949 L 134.031 8.817 L 134.757 8.691 L 135.486 8.564 L 136.221 8.436 L 136.958 8.311 L 137.699 8.188 L 138.445 8.067 L 139.193 7.946 L 139.948 7.827 L 140.704 7.71 L 141.465 7.593 L 142.233 7.478 L 143.003 7.365 L 143.775 7.252 L 144.555 7.143 L 145.339 7.032 L 146.127 6.925 L 146.92 6.818 L 147.717 6.713 L 148.518 6.61 L 149.325 6.507 L 150.138 6.406 L 150.956 6.308 L 151.777 6.209 L 152.605 6.112 L 153.438 6.016 L 154.275 5.922 L 155.119 5.83 L 155.968 5.738 L 156.824 5.649 L 157.684 5.56 L 158.551 5.474 L 159.425 5.389 L 160.304 5.305 L 161.189 5.222 L 162.081 5.141 L 162.981 5.06 L 163.885 4.982 L 164.798 4.905 L 165.718 4.828 L 166.645 4.754 L 167.58 4.68 L 168.522 4.61 L 169.471 4.539 L 170.43 4.471 L 171.396 4.405 L 172.371 4.338 L 173.355 4.273 L 174.347 4.209 L 175.349 4.149 L 176.36 4.088 L 177.381 4.027 L 178.415 3.971 L 179.456 3.914 L 180.509 3.859 L 181.575 3.805 L 182.651 3.755 L 183.737 3.703 L 184.838 3.654 L 185.953 3.606 L 187.079 3.559 L 188.222 3.512 L 189.378 3.47 L 190.551 3.428 L 191.737 3.388 L 192.944 3.347 L 194.165 3.309 L 195.405 3.272 L 196.667 3.237 L 197.948 3.202 L 199.252 3.17 L 200.58 3.14 L 201.932 3.109 L 203.31 3.081 L 204.715 3.052 L 206.151 3.029 L 207.623 3.004 L 209.128 2.98 L 210.672 2.96 L 212.258 2.94 L 213.89 2.92 L 215.573 2.903 L 217.315 2.887 L 219.123 2.873 L 221.006 2.858 L 222.973 2.846 L 225.043 2.836 L 227.237 2.828 L 229.584 2.821 L 232.13 2.814 L 234.95 2.808 L 238.186 2.806 L 242.191 2.804 L 250 2.803 L 257.809 2.804 L 261.814 2.806 L 265.047 2.808 L 267.87 2.814 L 270.414 2.821 L 272.761 2.828 L 274.957 2.836 L 277.027 2.846 L 278.995 2.858 L 280.877 2.873 L 282.684 2.887 L 284.427 2.903 L 286.11 2.92 L 287.742 2.94 L 289.328 2.96 L 290.872 2.98 L 292.377 3.004 L 293.847 3.029 L 295.284 3.052 L 296.69 3.081 L 298.068 3.109 L 299.42 3.14 L 300.746 3.17 L 302.049 3.202 L 303.333 3.237 L 304.592 3.272 L 305.835 3.309 L 307.056 3.347 L 308.263 3.388 L 309.449 3.428 L 310.622 3.47 L 311.778 3.512 L 312.919 3.559 L 314.047 3.606 L 315.16 3.654 L 316.263 3.703 L 317.349 3.755 L 318.425 3.805 L 319.491 3.859 L 320.544 3.914 L 321.585 3.971 L 322.617 4.027 L 323.638 4.088 L 324.651 4.149 L 325.652 4.209 L 326.645 4.273 L 327.629 4.338 L 328.605 4.405 L 329.57 4.471 L 330.529 4.539 L 331.478 4.61 L 332.42 4.68 L 333.355 4.754 L 334.282 4.828 L 335.201 4.905 L 336.113 4.982 L 337.019 5.06 L 337.919 5.141 L 338.811 5.222 L 339.695 5.305 L 340.575 5.389 L 341.448 5.474 L 342.314 5.56 L 343.176 5.649 L 344.031 5.738 L 344.881 5.83 L 345.725 5.922 L 346.562 6.016 L 347.395 6.112 L 348.223 6.209 L 349.044 6.308 L 349.862 6.406 L 350.673 6.507 L 351.48 6.61 L 352.283 6.713 L 353.08 6.818 L 353.873 6.925 L 354.661 7.032 L 355.444 7.143 L 356.225 7.252 L 356.997 7.365 L 357.767 7.478 L 358.535 7.593 L 359.296 7.71 L 360.052 7.827 L 360.807 7.946 L 361.555 8.067 L 362.3 8.188 L 363.041 8.311 L 363.779 8.436 L 364.514 8.564 L 365.243 8.691 L 365.969 8.817 L 366.691 8.949 L 367.41 9.08 L 368.124 9.213 L 368.837 9.348 L 369.544 9.484 L 370.249 9.621 L 370.949 9.76 L 371.648 9.9 L 372.342 10.042 L 373.032 10.184 L 373.72 10.329 L 374.405 10.475 L 375.086 10.622 L 375.764 10.769 L 376.438 10.921 L 377.11 11.072 L 377.778 11.224 L 378.444 11.378 L 379.106 11.534 L 379.766 11.692 L 380.422 11.849 L 381.076 12.008 L 381.725 12.169 L 382.373 12.333 L 383.019 12.496 L 383.661 12.662 L 384.301 12.83 L 384.936 12.997 L 385.57 13.168 L 386.199 13.338 L 386.827 13.512 L 387.452 13.685 L 388.076 13.861 L 388.696 14.036 L 389.313 14.216 L 389.928 14.395 L 390.54 14.575 L 391.15 14.759 L 391.757 14.942 L 392.36 15.126 L 392.964 15.314 L 393.562 15.503 L 394.16 15.691 L 394.754 15.882 L 395.344 16.075 L 395.936 16.271 L 396.524 16.464 L 397.109 16.66 L 397.689 16.858 L 398.269 17.057 L 398.846 17.26 L 399.423 17.461 L 399.994 17.664 L 400.565 17.87 L 401.135 18.076 L 401.7 18.286 L 402.265 18.494 L 402.825 18.706 L 403.384 18.918 L 403.941 19.132 L 404.496 19.347 L 405.049 19.563 L 405.6 19.781 L 406.147 20.002 L 406.693 20.222 L 407.238 20.445 L 407.779 20.667 L 408.321 20.894 L 408.857 21.12 L 409.392 21.348 L 409.925 21.578 L 410.455 21.809 L 410.986 22.042 L 411.512 22.273 L 412.037 22.51 L 412.56 22.746 L 413.081 22.986 L 413.599 23.224 L 414.116 23.467 L 414.632 23.708 L 415.145 23.953 L 415.656 24.199 L 416.164 24.445 L 416.67 24.694 L 417.175 24.943 L 417.677 25.193 L 418.18 25.446 L 418.676 25.703 L 419.174 25.956 L 419.669 26.214 L 420.163 26.471 L 420.654 26.734 L 421.144 26.994 L 421.631 27.256 L 422.117 27.52 L 422.599 27.787 L 423.081 28.055 L 423.562 28.323 L 424.04 28.594 L 424.516 28.864 L 424.991 29.139 L 425.463 29.411 L 425.933 29.687 L 426.403 29.967 L 426.869 30.245 L 427.334 30.525 L 427.798 30.807 L 428.259 31.092 L 428.718 31.377 L 429.176 31.663 L 429.632 31.95 L 430.088 32.24 L 430.538 32.531 L 430.99 32.823 L 431.438 33.116 L 431.886 33.413 L 432.332 33.71 L 432.776 34.008 L 433.217 34.307 L 433.658 34.61 L 434.096 34.912 L 434.533 35.217 L 434.967 35.522 L 435.401 35.83 L 435.834 36.139 L 436.263 36.447 L 436.69 36.761 L 437.116 37.074 L 437.542 37.388 L 437.964 37.705 L 438.386 38.021 L 438.806 38.343 L 439.223 38.663 L 439.639 38.985 L 440.055 39.31 L 440.467 39.634 L 440.878 39.964 L 441.288 40.29 L 441.695 40.621 L 442.103 40.951 L 442.507 41.285 L 442.91 41.62 L 443.31 41.957 L 443.71 42.294 L 444.107 42.633 L 444.505 42.974 L 444.9 43.315 L 445.294 43.66 L 445.683 44.005 L 446.075 44.352 L 446.462 44.701 L 446.848 45.051 L 447.233 45.403 L 447.616 45.757 L 447.998 46.11 L 448.377 46.467 L 448.757 46.824 L 449.134 47.183 L 449.509 47.545 L 449.882 47.908 L 450.256 48.273 L 450.625 48.638 L 450.995 49.005 L 451.362 49.375 L 451.727 49.744 L 452.092 50.118 L 452.455 50.491 L 452.815 50.866 L 453.176 51.243 L 453.533 51.621 L 453.888 52.002 L 454.243 52.384 L 454.597 52.767 L 454.949 53.152 L 455.299 53.538 L 455.648 53.925 L 455.995 54.317 L 456.34 54.706 L 456.682 55.1 L 457.026 55.495 L 457.367 55.891 L 457.706 56.288 L 458.043 56.689 L 458.38 57.09 L 458.715 57.493 L 459.048 57.897 L 459.379 58.305 L 459.71 58.712 L 460.036 59.121 L 460.366 59.533 L 460.69 59.945 L 461.013 60.361 L 461.337 60.777 L 461.657 61.194 L 461.976 61.614 L 462.294 62.036 L 462.612 62.458 L 462.926 62.881 L 463.239 63.31 L 463.553 63.737 L 463.861 64.166 L 464.17 64.599 L 464.478 65.033 L 464.783 65.467 L 465.088 65.904 L 465.39 66.342 L 465.693 66.783 L 465.992 67.224 L 466.29 67.668 L 466.587 68.114 L 466.882 68.56 L 467.177 69.01 L 467.469 69.46 L 467.76 69.912 L 468.05 70.366 L 468.337 70.824 L 468.623 71.282 L 468.908 71.741 L 469.192 72.202 L 469.473 72.666 L 469.755 73.131 L 470.033 73.597 L 470.31 74.067 L 470.586 74.537 L 470.861 75.009 L 471.134 75.484 L 471.406 75.96 L 471.676 76.438 L 471.945 76.919 L 472.214 77.398 L 472.477 77.883 L 472.744 78.369 L 473.006 78.856 L 473.266 79.346 L 473.526 79.837 L 473.786 80.331 L 474.044 80.826 L 474.297 81.322 L 474.552 81.82 L 474.807 82.323 L 475.057 82.825 L 475.306 83.33 L 475.555 83.836 L 475.801 84.344 L 476.047 84.855 L 476.292 85.368 L 476.533 85.884 L 476.774 86.401 L 477.014 86.917 L 477.252 87.44 L 477.488 87.963 L 477.725 88.488 L 477.958 89.014 L 478.191 89.545 L 478.422 90.075 L 478.652 90.608 L 478.878 91.143 L 479.106 91.679 L 479.331 92.221 L 479.555 92.762 L 479.777 93.307 L 479.998 93.853 L 480.219 94.4 L 480.437 94.951 L 480.652 95.504 L 480.868 96.059 L 481.082 96.616 L 481.294 97.175 L 481.506 97.735 L 481.714 98.299 L 481.922 98.865 L 482.13 99.433 L 482.336 100.003 L 482.539 100.577 L 482.74 101.153 L 482.943 101.73 L 483.141 102.311 L 483.338 102.891 L 483.536 103.476 L 483.729 104.064 L 483.925 104.653 L 484.118 105.246 L 484.309 105.84 L 484.497 106.438 L 484.686 107.037 L 484.872 107.638 L 485.058 108.243 L 485.241 108.85 L 485.422 109.46 L 485.605 110.072 L 485.784 110.685 L 485.962 111.304 L 486.139 111.924 L 486.315 112.548 L 486.488 113.171 L 486.662 113.801 L 486.832 114.43 L 487.003 115.064 L 487.17 115.699 L 487.338 116.339 L 487.504 116.981 L 487.667 117.625 L 487.829 118.275 L 487.99 118.924 L 488.151 119.578 L 488.308 120.234 L 488.466 120.894 L 488.622 121.556 L 488.775 122.221 L 488.928 122.89 L 489.079 123.562 L 489.229 124.236 L 489.378 124.914 L 489.525 125.595 L 489.671 126.28 L 489.816 126.968 L 489.958 127.658 L 490.1 128.352 L 490.24 129.051 L 490.379 129.751 L 490.514 130.456 L 490.652 131.163 L 490.784 131.874 L 490.918 132.59 L 491.051 133.309 L 491.182 134.031 L 491.309 134.757 L 491.436 135.486 L 491.564 136.221 L 491.689 136.958 L 491.812 137.699 L 491.933 138.445 L 492.054 139.193 L 492.173 139.948 L 492.29 140.704 L 492.407 141.465 L 492.522 142.233 L 492.635 143.003 L 492.747 143.775 L 492.857 144.555 L 492.966 145.339 L 493.075 146.127 L 493.181 146.92 L 493.287 147.717 L 493.39 148.518 L 493.493 149.325 L 493.594 150.138 L 493.692 150.956 L 493.791 151.777 L 493.888 152.605 L 493.984 153.438 L 494.078 154.275 L 494.169 155.119 L 494.262 155.968 L 494.351 156.824 L 494.44 157.684 L 494.526 158.551 L 494.611 159.425 L 494.695 160.305 L 494.778 161.189 L 494.859 162.081 L 494.94 162.981 L 495.018 163.885 L 495.095 164.798 L 495.169 165.718 L 495.244 166.645 L 495.32 167.58 L 495.39 168.522 L 495.461 169.471 L 495.529 170.43 L 495.595 171.396 L 495.662 172.371 L 495.727 173.355 L 495.791 174.347 L 495.851 175.349 L 495.912 176.36 L 495.973 177.381 L 496.029 178.415 L 496.086 179.456 L 496.14 180.509 L 496.195 181.575 L 496.245 182.651 L 496.296 183.737 L 496.346 184.838 L 496.394 185.953 L 496.441 187.079 L 496.485 188.222 L 496.53 189.378 L 496.572 190.551 L 496.612 191.737 L 496.653 192.944 L 496.691 194.165 L 496.728 195.405 L 496.762 196.667 L 496.796 197.948 L 496.828 199.252 L 496.861 200.58 L 496.891 201.932 L 496.919 203.31 L 496.946 204.715 L 496.971 206.151 L 496.996 207.623 L 497.02 209.128 L 497.04 210.672 L 497.06 212.258 L 497.078 213.89 L 497.097 215.573 L 497.113 217.316 L 497.127 219.123 L 497.142 221.006 L 497.154 222.973 L 497.164 225.043 L 497.172 227.237 L 497.179 229.584 L 497.186 232.13 L 497.189 234.95 L 497.194 238.186 L 497.196 242.191 L 497.197 250 Z" style="fill: rgba(212, 24, 115, 0.03);"/>
  <path d="M 466.941 250 L 466.94 256.853 L 466.938 260.368 L 466.934 263.206 L 466.931 265.682 L 466.925 267.915 L 466.919 269.975 L 466.912 271.902 L 466.903 273.719 L 466.892 275.446 L 466.88 277.098 L 466.867 278.683 L 466.853 280.213 L 466.837 281.69 L 466.821 283.122 L 466.803 284.514 L 466.786 285.869 L 466.764 287.19 L 466.743 288.48 L 466.72 289.741 L 466.697 290.975 L 466.673 292.185 L 466.646 293.371 L 466.617 294.535 L 466.589 295.679 L 466.559 296.805 L 466.529 297.91 L 466.497 299.001 L 466.464 300.073 L 466.428 301.132 L 466.392 302.173 L 466.355 303.202 L 466.316 304.217 L 466.277 305.22 L 466.236 306.208 L 466.194 307.185 L 466.15 308.152 L 466.105 309.106 L 466.061 310.05 L 466.014 310.985 L 465.966 311.91 L 465.916 312.824 L 465.866 313.729 L 465.814 314.625 L 465.76 315.514 L 465.707 316.393 L 465.65 317.264 L 465.594 318.128 L 465.535 318.984 L 465.477 319.831 L 465.417 320.673 L 465.355 321.505 L 465.293 322.332 L 465.227 323.152 L 465.161 323.966 L 465.096 324.773 L 465.029 325.573 L 464.96 326.368 L 464.889 327.158 L 464.818 327.941 L 464.745 328.717 L 464.671 329.489 L 464.597 330.255 L 464.521 331.015 L 464.443 331.772 L 464.365 332.522 L 464.284 333.268 L 464.204 334.008 L 464.121 334.743 L 464.037 335.475 L 463.952 336.201 L 463.865 336.921 L 463.779 337.639 L 463.69 338.351 L 463.599 339.059 L 463.51 339.764 L 463.417 340.463 L 463.323 341.159 L 463.227 341.85 L 463.132 342.538 L 463.035 343.223 L 462.937 343.901 L 462.838 344.577 L 462.737 345.251 L 462.635 345.918 L 462.531 346.582 L 462.427 347.244 L 462.321 347.901 L 462.215 348.555 L 462.107 349.205 L 461.997 349.853 L 461.885 350.498 L 461.774 351.137 L 461.663 351.775 L 461.547 352.409 L 461.43 353.039 L 461.313 353.666 L 461.197 354.292 L 461.076 354.913 L 460.958 355.531 L 460.836 356.146 L 460.713 356.759 L 460.588 357.368 L 460.464 357.973 L 460.336 358.577 L 460.208 359.178 L 460.079 359.776 L 459.948 360.371 L 459.816 360.962 L 459.684 361.552 L 459.55 362.139 L 459.415 362.723 L 459.279 363.303 L 459.14 363.883 L 459.002 364.458 L 458.861 365.032 L 458.719 365.603 L 458.578 366.171 L 458.434 366.738 L 458.289 367.301 L 458.141 367.863 L 457.995 368.42 L 457.844 368.976 L 457.695 369.529 L 457.543 370.08 L 457.39 370.628 L 457.236 371.176 L 457.081 371.72 L 456.925 372.262 L 456.768 372.801 L 456.607 373.338 L 456.448 373.873 L 456.287 374.406 L 456.124 374.935 L 455.961 375.466 L 455.795 375.991 L 455.63 376.515 L 455.462 377.036 L 455.293 377.555 L 455.122 378.074 L 454.952 378.59 L 454.778 379.103 L 454.605 379.613 L 454.431 380.121 L 454.254 380.628 L 454.077 381.134 L 453.898 381.635 L 453.718 382.136 L 453.535 382.636 L 453.353 383.132 L 453.17 383.628 L 452.985 384.12 L 452.798 384.61 L 452.611 385.099 L 452.421 385.586 L 452.232 386.072 L 452.041 386.555 L 451.847 387.035 L 451.653 387.514 L 451.458 387.993 L 451.262 388.467 L 451.064 388.943 L 450.864 389.413 L 450.666 389.883 L 450.464 390.35 L 450.261 390.816 L 450.057 391.282 L 449.852 391.744 L 449.644 392.204 L 449.437 392.663 L 449.228 393.12 L 449.017 393.575 L 448.806 394.03 L 448.594 394.482 L 448.38 394.932 L 448.164 395.38 L 447.948 395.826 L 447.729 396.27 L 447.511 396.714 L 447.291 397.154 L 447.068 397.595 L 446.844 398.031 L 446.621 398.468 L 446.395 398.902 L 446.167 399.336 L 445.939 399.766 L 445.711 400.197 L 445.481 400.624 L 445.247 401.05 L 445.016 401.474 L 444.779 401.897 L 444.544 402.318 L 444.307 402.738 L 444.068 403.156 L 443.828 403.573 L 443.587 403.987 L 443.345 404.4 L 443.102 404.812 L 442.858 405.221 L 442.61 405.629 L 442.364 406.036 L 442.114 406.441 L 441.864 406.843 L 441.613 407.245 L 441.361 407.646 L 441.107 408.046 L 440.852 408.44 L 440.595 408.838 L 440.336 409.23 L 440.078 409.624 L 439.817 410.015 L 439.555 410.405 L 439.293 410.792 L 439.027 411.179 L 438.762 411.563 L 438.494 411.947 L 438.227 412.328 L 437.956 412.708 L 437.685 413.088 L 437.414 413.465 L 437.139 413.84 L 436.865 414.214 L 436.589 414.588 L 436.31 414.958 L 436.031 415.328 L 435.751 415.697 L 435.47 416.063 L 435.186 416.428 L 434.903 416.793 L 434.617 417.154 L 434.329 417.516 L 434.042 417.875 L 433.752 418.232 L 433.462 418.59 L 433.169 418.945 L 432.875 419.298 L 432.579 419.65 L 432.283 420 L 431.986 420.349 L 431.687 420.698 L 431.385 421.045 L 431.084 421.39 L 430.782 421.732 L 430.477 422.076 L 430.171 422.415 L 429.864 422.754 L 429.555 423.092 L 429.244 423.429 L 428.933 423.764 L 428.621 424.096 L 428.308 424.429 L 427.991 424.76 L 427.675 425.089 L 427.356 425.417 L 427.036 425.745 L 426.716 426.069 L 426.394 426.394 L 426.069 426.716 L 425.745 427.036 L 425.417 427.356 L 425.089 427.675 L 424.76 427.991 L 424.429 428.308 L 424.096 428.621 L 423.764 428.933 L 423.429 429.244 L 423.092 429.555 L 422.754 429.864 L 422.415 430.171 L 422.076 430.477 L 421.732 430.782 L 421.39 431.084 L 421.045 431.385 L 420.698 431.687 L 420.349 431.986 L 420 432.283 L 419.65 432.579 L 419.298 432.875 L 418.945 433.169 L 418.59 433.462 L 418.232 433.752 L 417.875 434.042 L 417.516 434.329 L 417.154 434.617 L 416.793 434.903 L 416.428 435.186 L 416.063 435.47 L 415.697 435.751 L 415.328 436.031 L 414.958 436.31 L 414.588 436.589 L 414.214 436.865 L 413.84 437.139 L 413.465 437.414 L 413.088 437.685 L 412.708 437.956 L 412.328 438.227 L 411.947 438.494 L 411.563 438.762 L 411.179 439.027 L 410.792 439.293 L 410.405 439.555 L 410.015 439.817 L 409.624 440.078 L 409.23 440.336 L 408.838 440.595 L 408.44 440.852 L 408.046 441.107 L 407.646 441.361 L 407.245 441.613 L 406.843 441.864 L 406.441 442.114 L 406.036 442.364 L 405.629 442.61 L 405.221 442.858 L 404.812 443.102 L 404.4 443.345 L 403.987 443.587 L 403.573 443.828 L 403.156 444.068 L 402.738 444.307 L 402.318 444.544 L 401.897 444.779 L 401.474 445.016 L 401.05 445.247 L 400.624 445.481 L 400.197 445.711 L 399.766 445.939 L 399.336 446.167 L 398.902 446.395 L 398.468 446.621 L 398.031 446.844 L 397.595 447.068 L 397.154 447.291 L 396.714 447.511 L 396.27 447.729 L 395.826 447.948 L 395.38 448.164 L 394.932 448.38 L 394.482 448.594 L 394.029 448.806 L 393.575 449.017 L 393.12 449.228 L 392.663 449.437 L 392.204 449.644 L 391.744 449.852 L 391.282 450.057 L 390.816 450.261 L 390.35 450.464 L 389.883 450.666 L 389.413 450.864 L 388.943 451.064 L 388.467 451.262 L 387.993 451.458 L 387.514 451.653 L 387.035 451.847 L 386.555 452.041 L 386.072 452.232 L 385.586 452.421 L 385.099 452.611 L 384.61 452.798 L 384.12 452.985 L 383.628 453.17 L 383.132 453.353 L 382.636 453.535 L 382.136 453.718 L 381.635 453.898 L 381.134 454.077 L 380.628 454.254 L 380.121 454.431 L 379.613 454.605 L 379.103 454.778 L 378.59 454.952 L 378.074 455.122 L 377.555 455.293 L 377.036 455.462 L 376.515 455.63 L 375.991 455.795 L 375.466 455.961 L 374.935 456.124 L 374.406 456.287 L 373.873 456.448 L 373.338 456.607 L 372.801 456.768 L 372.262 456.925 L 371.72 457.081 L 371.176 457.236 L 370.628 457.39 L 370.08 457.543 L 369.529 457.695 L 368.976 457.844 L 368.42 457.995 L 367.863 458.141 L 367.301 458.289 L 366.738 458.434 L 366.171 458.578 L 365.603 458.719 L 365.032 458.861 L 364.458 459.002 L 363.883 459.14 L 363.303 459.279 L 362.723 459.415 L 362.139 459.55 L 361.552 459.684 L 360.962 459.816 L 360.371 459.948 L 359.776 460.079 L 359.178 460.208 L 358.577 460.336 L 357.973 460.464 L 357.368 460.588 L 356.759 460.713 L 356.146 460.836 L 355.531 460.958 L 354.913 461.076 L 354.292 461.197 L 353.666 461.313 L 353.039 461.43 L 352.409 461.547 L 351.775 461.663 L 351.137 461.774 L 350.498 461.885 L 349.853 461.997 L 349.205 462.107 L 348.555 462.215 L 347.901 462.321 L 347.244 462.427 L 346.582 462.531 L 345.918 462.635 L 345.251 462.737 L 344.577 462.838 L 343.901 462.937 L 343.223 463.035 L 342.538 463.132 L 341.85 463.227 L 341.159 463.323 L 340.463 463.417 L 339.764 463.51 L 339.059 463.599 L 338.351 463.69 L 337.639 463.779 L 336.921 463.865 L 336.201 463.952 L 335.475 464.037 L 334.743 464.121 L 334.008 464.204 L 333.268 464.284 L 332.522 464.365 L 331.772 464.443 L 331.015 464.521 L 330.255 464.597 L 329.489 464.671 L 328.717 464.745 L 327.941 464.818 L 327.158 464.889 L 326.368 464.96 L 325.573 465.029 L 324.773 465.096 L 323.966 465.161 L 323.152 465.227 L 322.332 465.293 L 321.505 465.355 L 320.673 465.417 L 319.831 465.477 L 318.984 465.535 L 318.128 465.594 L 317.264 465.65 L 316.393 465.707 L 315.514 465.76 L 314.625 465.814 L 313.729 465.866 L 312.824 465.916 L 311.91 465.966 L 310.985 466.014 L 310.05 466.061 L 309.106 466.105 L 308.152 466.15 L 307.185 466.194 L 306.208 466.236 L 305.218 466.277 L 304.217 466.316 L 303.202 466.355 L 302.173 466.392 L 301.132 466.428 L 300.073 466.464 L 299.001 466.497 L 297.91 466.529 L 296.805 466.559 L 295.679 466.589 L 294.535 466.617 L 293.371 466.646 L 292.185 466.673 L 290.975 466.697 L 289.741 466.72 L 288.48 466.743 L 287.19 466.764 L 285.869 466.786 L 284.514 466.803 L 283.122 466.821 L 281.69 466.837 L 280.213 466.853 L 278.683 466.867 L 277.098 466.88 L 275.446 466.892 L 273.719 466.903 L 271.902 466.912 L 269.975 466.919 L 267.915 466.925 L 265.682 466.931 L 263.206 466.934 L 260.368 466.938 L 256.853 466.94 L 250 466.941 L 243.147 466.94 L 239.632 466.938 L 236.792 466.934 L 234.318 466.931 L 232.083 466.925 L 230.023 466.919 L 228.098 466.912 L 226.281 466.903 L 224.555 466.892 L 222.902 466.88 L 221.316 466.867 L 219.787 466.853 L 218.31 466.837 L 216.878 466.821 L 215.486 466.803 L 214.131 466.786 L 212.81 466.764 L 211.518 466.743 L 210.258 466.72 L 209.025 466.697 L 207.815 466.673 L 206.629 466.646 L 205.464 466.617 L 204.319 466.589 L 203.195 466.559 L 202.088 466.529 L 200.999 466.497 L 199.927 466.464 L 198.868 466.428 L 197.827 466.392 L 196.798 466.355 L 195.783 466.316 L 194.78 466.277 L 193.792 466.236 L 192.813 466.194 L 191.848 466.15 L 190.894 466.105 L 189.95 466.061 L 189.015 466.014 L 188.09 465.966 L 187.176 465.916 L 186.269 465.866 L 185.373 465.814 L 184.486 465.76 L 183.606 465.707 L 182.736 465.65 L 181.872 465.594 L 181.017 465.535 L 180.169 465.477 L 179.327 465.417 L 178.495 465.355 L 177.668 465.293 L 176.848 465.227 L 176.034 465.161 L 175.226 465.096 L 174.426 465.029 L 173.632 464.96 L 172.842 464.889 L 172.059 464.818 L 171.282 464.745 L 170.511 464.671 L 169.745 464.597 L 168.983 464.521 L 168.228 464.443 L 167.478 464.365 L 166.732 464.284 L 165.992 464.204 L 165.257 464.121 L 164.525 464.037 L 163.799 463.952 L 163.079 463.865 L 162.361 463.779 L 161.648 463.69 L 160.939 463.599 L 160.236 463.51 L 159.537 463.417 L 158.841 463.323 L 158.15 463.227 L 157.461 463.132 L 156.777 463.035 L 156.099 462.937 L 155.423 462.838 L 154.749 462.737 L 154.082 462.635 L 153.418 462.531 L 152.756 462.427 L 152.099 462.321 L 151.445 462.215 L 150.794 462.107 L 150.147 461.997 L 149.502 461.885 L 148.863 461.774 L 148.225 461.663 L 147.591 461.547 L 146.961 461.43 L 146.332 461.313 L 145.708 461.197 L 145.087 461.076 L 144.469 460.958 L 143.854 460.836 L 143.241 460.713 L 142.632 460.588 L 142.027 460.464 L 141.423 460.336 L 140.822 460.208 L 140.224 460.079 L 139.629 459.948 L 139.038 459.816 L 138.448 459.684 L 137.861 459.55 L 137.277 459.415 L 136.697 459.279 L 136.117 459.14 L 135.542 459.002 L 134.968 458.861 L 134.397 458.719 L 133.827 458.578 L 133.262 458.434 L 132.699 458.289 L 132.137 458.141 L 131.58 457.995 L 131.024 457.844 L 130.471 457.695 L 129.918 457.543 L 129.372 457.39 L 128.824 457.236 L 128.28 457.081 L 127.737 456.925 L 127.199 456.768 L 126.662 456.607 L 126.127 456.448 L 125.594 456.287 L 125.063 456.124 L 124.535 455.961 L 124.009 455.795 L 123.485 455.63 L 122.964 455.462 L 122.443 455.293 L 121.926 455.122 L 121.41 454.952 L 120.897 454.778 L 120.387 454.605 L 119.878 454.431 L 119.371 454.254 L 118.866 454.077 L 118.363 453.898 L 117.862 453.718 L 117.364 453.535 L 116.867 453.353 L 116.372 453.17 L 115.88 452.985 L 115.39 452.798 L 114.901 452.611 L 114.414 452.421 L 113.928 452.232 L 113.445 452.041 L 112.965 451.847 L 112.486 451.653 L 112.007 451.458 L 111.533 451.262 L 111.057 451.064 L 110.587 450.864 L 110.117 450.666 L 109.65 450.464 L 109.184 450.261 L 108.718 450.057 L 108.256 449.852 L 107.796 449.644 L 107.337 449.437 L 106.878 449.228 L 106.423 449.017 L 105.97 448.806 L 105.518 448.594 L 105.068 448.38 L 104.62 448.164 L 104.174 447.948 L 103.73 447.729 L 103.286 447.511 L 102.846 447.291 L 102.405 447.068 L 101.967 446.844 L 101.532 446.621 L 101.098 446.395 L 100.664 446.167 L 100.234 445.939 L 99.803 445.711 L 99.376 445.481 L 98.95 445.247 L 98.524 445.016 L 98.103 444.779 L 97.682 444.544 L 97.262 444.307 L 96.844 444.068 L 96.427 443.828 L 96.013 443.587 L 95.6 443.345 L 95.188 443.102 L 94.779 442.858 L 94.371 442.61 L 93.964 442.364 L 93.559 442.114 L 93.157 441.864 L 92.755 441.613 L 92.352 441.361 L 91.954 441.107 L 91.558 440.852 L 91.162 440.595 L 90.768 440.336 L 90.376 440.078 L 89.985 439.817 L 89.595 439.555 L 89.208 439.293 L 88.821 439.027 L 88.437 438.762 L 88.053 438.494 L 87.672 438.227 L 87.291 437.956 L 86.912 437.685 L 86.535 437.414 L 86.16 437.139 L 85.784 436.865 L 85.412 436.589 L 85.042 436.31 L 84.672 436.031 L 84.303 435.751 L 83.937 435.47 L 83.572 435.186 L 83.207 434.903 L 82.846 434.617 L 82.484 434.329 L 82.125 434.042 L 81.768 433.752 L 81.41 433.462 L 81.055 433.169 L 80.702 432.875 L 80.349 432.579 L 79.998 432.283 L 79.649 431.986 L 79.302 431.687 L 78.955 431.385 L 78.61 431.084 L 78.268 430.782 L 77.924 430.477 L 77.585 430.171 L 77.246 429.864 L 76.908 429.555 L 76.571 429.244 L 76.236 428.933 L 75.902 428.621 L 75.571 428.308 L 75.24 427.991 L 74.911 427.675 L 74.583 427.356 L 74.255 427.036 L 73.931 426.716 L 73.606 426.394 L 73.284 426.069 L 72.964 425.745 L 72.644 425.417 L 72.325 425.089 L 72.007 424.76 L 71.692 424.429 L 71.379 424.096 L 71.065 423.764 L 70.756 423.429 L 70.445 423.092 L 70.136 422.754 L 69.829 422.415 L 69.523 422.076 L 69.218 421.732 L 68.916 421.39 L 68.613 421.045 L 68.313 420.698 L 68.014 420.349 L 67.717 420 L 67.421 419.65 L 67.125 419.298 L 66.831 418.945 L 66.538 418.59 L 66.248 418.232 L 65.958 417.875 L 65.671 417.516 L 65.383 417.154 L 65.097 416.793 L 64.812 416.428 L 64.53 416.063 L 64.249 415.697 L 63.967 415.328 L 63.69 414.958 L 63.411 414.588 L 63.135 414.214 L 62.861 413.84 L 62.586 413.465 L 62.315 413.088 L 62.044 412.708 L 61.773 412.328 L 61.506 411.947 L 61.238 411.563 L 60.973 411.179 L 60.707 410.792 L 60.445 410.405 L 60.183 410.015 L 59.922 409.624 L 59.662 409.23 L 59.405 408.838 L 59.148 408.44 L 58.893 408.046 L 58.639 407.646 L 58.387 407.245 L 58.136 406.843 L 57.886 406.441 L 57.636 406.036 L 57.388 405.629 L 57.142 405.221 L 56.898 404.812 L 56.653 404.4 L 56.411 403.987 L 56.172 403.573 L 55.93 403.156 L 55.693 402.738 L 55.456 402.318 L 55.221 401.897 L 54.985 401.474 L 54.751 401.05 L 54.519 400.624 L 54.289 400.197 L 54.061 399.766 L 53.831 399.336 L 53.605 398.902 L 53.379 398.468 L 53.156 398.031 L 52.93 397.595 L 52.709 397.154 L 52.489 396.714 L 52.271 396.27 L 52.052 395.826 L 51.836 395.38 L 51.62 394.932 L 51.406 394.482 L 51.194 394.03 L 50.981 393.575 L 50.772 393.12 L 50.561 392.663 L 50.354 392.204 L 50.146 391.744 L 49.943 391.282 L 49.739 390.816 L 49.536 390.35 L 49.334 389.883 L 49.134 389.413 L 48.936 388.943 L 48.736 388.467 L 48.542 387.993 L 48.346 387.514 L 48.153 387.035 L 47.959 386.555 L 47.768 386.072 L 47.579 385.586 L 47.389 385.099 L 47.202 384.61 L 47.015 384.12 L 46.83 383.628 L 46.647 383.132 L 46.463 382.636 L 46.282 382.136 L 46.102 381.635 L 45.923 381.134 L 45.746 380.628 L 45.569 380.121 L 45.394 379.613 L 45.22 379.103 L 45.048 378.59 L 44.878 378.074 L 44.707 377.555 L 44.538 377.036 L 44.37 376.515 L 44.205 375.991 L 44.039 375.466 L 43.874 374.935 L 43.713 374.406 L 43.552 373.873 L 43.391 373.338 L 43.232 372.801 L 43.075 372.262 L 42.917 371.72 L 42.764 371.176 L 42.61 370.628 L 42.457 370.08 L 42.305 369.529 L 42.156 368.976 L 42.005 368.42 L 41.859 367.863 L 41.711 367.301 L 41.566 366.738 L 41.422 366.171 L 41.279 365.603 L 41.137 365.032 L 40.998 364.458 L 40.86 363.883 L 40.721 363.303 L 40.585 362.723 L 40.449 362.139 L 40.316 361.552 L 40.184 360.962 L 40.05 360.371 L 39.921 359.776 L 39.792 359.178 L 39.664 358.577 L 39.536 357.973 L 39.412 357.368 L 39.287 356.759 L 39.164 356.146 L 39.042 355.531 L 38.922 354.913 L 38.803 354.292 L 38.685 353.666 L 38.568 353.039 L 38.453 352.409 L 38.337 351.775 L 38.226 351.137 L 38.115 350.498 L 38.003 349.853 L 37.893 349.205 L 37.785 348.555 L 37.679 347.901 L 37.573 347.244 L 37.469 346.582 L 37.365 345.918 L 37.263 345.251 L 37.162 344.577 L 37.063 343.901 L 36.964 343.223 L 36.868 342.538 L 36.771 341.85 L 36.677 341.159 L 36.583 340.463 L 36.49 339.764 L 36.401 339.059 L 36.31 338.351 L 36.221 337.639 L 36.135 336.921 L 36.048 336.201 L 35.963 335.475 L 35.879 334.743 L 35.796 334.008 L 35.715 333.268 L 35.635 332.522 L 35.557 331.772 L 35.479 331.015 L 35.403 330.255 L 35.329 329.489 L 35.254 328.717 L 35.182 327.941 L 35.111 327.158 L 35.04 326.368 L 34.971 325.573 L 34.904 324.773 L 34.837 323.966 L 34.771 323.152 L 34.707 322.332 L 34.645 321.505 L 34.583 320.673 L 34.523 319.831 L 34.465 318.984 L 34.406 318.128 L 34.35 317.264 L 34.293 316.393 L 34.24 315.514 L 34.186 314.625 L 34.134 313.729 L 34.084 312.824 L 34.034 311.91 L 33.986 310.985 L 33.939 310.05 L 33.895 309.106 L 33.849 308.152 L 33.806 307.185 L 33.764 306.208 L 33.723 305.22 L 33.682 304.217 L 33.645 303.202 L 33.608 302.173 L 33.572 301.132 L 33.536 300.073 L 33.503 299.001 L 33.471 297.91 L 33.44 296.805 L 33.409 295.679 L 33.381 294.535 L 33.355 293.371 L 33.327 292.185 L 33.303 290.975 L 33.278 289.741 L 33.257 288.48 L 33.236 287.19 L 33.214 285.869 L 33.197 284.514 L 33.179 283.122 L 33.161 281.69 L 33.147 280.213 L 33.133 278.683 L 33.12 277.098 L 33.108 275.446 L 33.097 273.719 L 33.088 271.902 L 33.081 269.975 L 33.075 267.915 L 33.069 265.682 L 33.064 263.206 L 33.062 260.368 L 33.06 256.853 L 33.059 250 L 33.06 243.147 L 33.062 239.632 L 33.064 236.792 L 33.069 234.318 L 33.075 232.083 L 33.081 230.023 L 33.088 228.098 L 33.097 226.281 L 33.108 224.555 L 33.12 222.902 L 33.133 221.317 L 33.147 219.787 L 33.161 218.31 L 33.179 216.878 L 33.197 215.486 L 33.214 214.131 L 33.236 212.81 L 33.257 211.518 L 33.278 210.258 L 33.303 209.025 L 33.327 207.815 L 33.355 206.629 L 33.381 205.464 L 33.409 204.319 L 33.44 203.195 L 33.471 202.088 L 33.503 200.999 L 33.536 199.927 L 33.572 198.868 L 33.608 197.827 L 33.645 196.798 L 33.682 195.783 L 33.723 194.78 L 33.764 193.792 L 33.806 192.813 L 33.849 191.848 L 33.895 190.894 L 33.939 189.95 L 33.986 189.015 L 34.034 188.09 L 34.084 187.176 L 34.134 186.269 L 34.186 185.373 L 34.24 184.486 L 34.293 183.606 L 34.35 182.736 L 34.406 181.872 L 34.465 181.017 L 34.523 180.169 L 34.583 179.327 L 34.645 178.495 L 34.707 177.668 L 34.771 176.848 L 34.837 176.034 L 34.904 175.226 L 34.971 174.426 L 35.04 173.632 L 35.111 172.842 L 35.182 172.059 L 35.254 171.283 L 35.329 170.511 L 35.403 169.745 L 35.479 168.983 L 35.557 168.228 L 35.635 167.478 L 35.715 166.732 L 35.796 165.992 L 35.879 165.257 L 35.963 164.525 L 36.048 163.799 L 36.135 163.079 L 36.221 162.361 L 36.31 161.648 L 36.401 160.939 L 36.49 160.236 L 36.583 159.537 L 36.677 158.841 L 36.771 158.15 L 36.868 157.461 L 36.964 156.777 L 37.063 156.099 L 37.162 155.423 L 37.263 154.749 L 37.365 154.082 L 37.469 153.418 L 37.573 152.756 L 37.679 152.099 L 37.785 151.445 L 37.893 150.794 L 38.003 150.147 L 38.115 149.502 L 38.226 148.863 L 38.337 148.225 L 38.453 147.591 L 38.568 146.961 L 38.685 146.332 L 38.803 145.708 L 38.922 145.087 L 39.042 144.469 L 39.164 143.854 L 39.287 143.241 L 39.412 142.632 L 39.536 142.027 L 39.664 141.423 L 39.792 140.822 L 39.921 140.224 L 40.05 139.629 L 40.184 139.038 L 40.316 138.448 L 40.449 137.861 L 40.585 137.277 L 40.721 136.697 L 40.86 136.117 L 40.998 135.542 L 41.137 134.968 L 41.279 134.397 L 41.422 133.827 L 41.566 133.262 L 41.711 132.699 L 41.859 132.137 L 42.005 131.58 L 42.156 131.024 L 42.305 130.471 L 42.457 129.918 L 42.61 129.372 L 42.764 128.824 L 42.917 128.28 L 43.075 127.737 L 43.232 127.199 L 43.391 126.662 L 43.552 126.127 L 43.713 125.594 L 43.874 125.063 L 44.039 124.535 L 44.205 124.009 L 44.37 123.485 L 44.538 122.964 L 44.707 122.443 L 44.878 121.926 L 45.048 121.41 L 45.22 120.897 L 45.394 120.387 L 45.569 119.878 L 45.746 119.371 L 45.923 118.866 L 46.102 118.363 L 46.282 117.862 L 46.463 117.364 L 46.647 116.867 L 46.83 116.372 L 47.015 115.88 L 47.202 115.39 L 47.389 114.901 L 47.579 114.414 L 47.768 113.928 L 47.959 113.445 L 48.153 112.965 L 48.346 112.486 L 48.542 112.007 L 48.736 111.533 L 48.936 111.057 L 49.134 110.587 L 49.334 110.117 L 49.536 109.65 L 49.739 109.184 L 49.943 108.718 L 50.146 108.256 L 50.354 107.796 L 50.561 107.337 L 50.772 106.878 L 50.981 106.425 L 51.194 105.971 L 51.406 105.518 L 51.62 105.068 L 51.836 104.62 L 52.052 104.174 L 52.271 103.73 L 52.489 103.286 L 52.709 102.846 L 52.93 102.405 L 53.156 101.967 L 53.379 101.532 L 53.605 101.098 L 53.831 100.664 L 54.061 100.234 L 54.289 99.803 L 54.519 99.376 L 54.751 98.95 L 54.985 98.524 L 55.221 98.103 L 55.456 97.682 L 55.693 97.262 L 55.93 96.844 L 56.172 96.427 L 56.411 96.013 L 56.653 95.6 L 56.898 95.188 L 57.142 94.779 L 57.388 94.371 L 57.636 93.964 L 57.886 93.559 L 58.136 93.157 L 58.387 92.755 L 58.639 92.352 L 58.893 91.954 L 59.148 91.558 L 59.405 91.162 L 59.662 90.768 L 59.922 90.376 L 60.183 89.985 L 60.445 89.595 L 60.707 89.208 L 60.973 88.821 L 61.238 88.437 L 61.506 88.053 L 61.773 87.672 L 62.044 87.291 L 62.315 86.912 L 62.586 86.535 L 62.861 86.16 L 63.135 85.784 L 63.411 85.412 L 63.69 85.042 L 63.967 84.672 L 64.249 84.303 L 64.53 83.937 L 64.812 83.572 L 65.097 83.207 L 65.383 82.846 L 65.671 82.484 L 65.958 82.125 L 66.248 81.768 L 66.538 81.41 L 66.831 81.055 L 67.125 80.702 L 67.421 80.349 L 67.717 79.998 L 68.014 79.649 L 68.313 79.302 L 68.613 78.955 L 68.916 78.61 L 69.218 78.268 L 69.523 77.924 L 69.829 77.585 L 70.136 77.246 L 70.445 76.908 L 70.756 76.571 L 71.065 76.236 L 71.379 75.902 L 71.692 75.571 L 72.007 75.24 L 72.325 74.911 L 72.644 74.583 L 72.964 74.255 L 73.284 73.931 L 73.606 73.606 L 73.931 73.284 L 74.255 72.964 L 74.583 72.644 L 74.911 72.325 L 75.24 72.007 L 75.571 71.692 L 75.902 71.379 L 76.236 71.065 L 76.571 70.756 L 76.908 70.445 L 77.246 70.136 L 77.585 69.829 L 77.924 69.523 L 78.268 69.218 L 78.61 68.916 L 78.955 68.613 L 79.302 68.313 L 79.649 68.014 L 79.998 67.717 L 80.349 67.421 L 80.702 67.125 L 81.055 66.831 L 81.41 66.538 L 81.768 66.248 L 82.125 65.958 L 82.484 65.671 L 82.846 65.383 L 83.207 65.097 L 83.572 64.812 L 83.937 64.53 L 84.303 64.249 L 84.672 63.967 L 85.042 63.69 L 85.412 63.411 L 85.784 63.135 L 86.16 62.861 L 86.535 62.586 L 86.912 62.315 L 87.291 62.044 L 87.672 61.773 L 88.053 61.506 L 88.437 61.238 L 88.821 60.973 L 89.208 60.707 L 89.595 60.445 L 89.985 60.183 L 90.376 59.922 L 90.768 59.662 L 91.162 59.405 L 91.558 59.148 L 91.954 58.893 L 92.352 58.639 L 92.755 58.387 L 93.157 58.136 L 93.559 57.886 L 93.964 57.636 L 94.371 57.388 L 94.779 57.142 L 95.188 56.898 L 95.6 56.653 L 96.013 56.411 L 96.427 56.172 L 96.844 55.93 L 97.262 55.693 L 97.682 55.456 L 98.103 55.221 L 98.524 54.985 L 98.95 54.751 L 99.376 54.519 L 99.803 54.289 L 100.234 54.061 L 100.664 53.831 L 101.098 53.605 L 101.532 53.379 L 101.967 53.156 L 102.405 52.93 L 102.846 52.709 L 103.286 52.489 L 103.73 52.271 L 104.174 52.052 L 104.62 51.836 L 105.068 51.62 L 105.518 51.406 L 105.97 51.194 L 106.423 50.981 L 106.878 50.772 L 107.337 50.561 L 107.796 50.354 L 108.256 50.146 L 108.718 49.943 L 109.184 49.739 L 109.65 49.536 L 110.117 49.334 L 110.587 49.134 L 111.057 48.936 L 111.533 48.736 L 112.007 48.542 L 112.486 48.346 L 112.965 48.153 L 113.445 47.959 L 113.928 47.768 L 114.414 47.579 L 114.901 47.389 L 115.39 47.202 L 115.88 47.015 L 116.372 46.83 L 116.867 46.647 L 117.364 46.463 L 117.862 46.282 L 118.363 46.102 L 118.866 45.923 L 119.371 45.746 L 119.878 45.569 L 120.387 45.394 L 120.897 45.22 L 121.41 45.048 L 121.926 44.878 L 122.443 44.707 L 122.964 44.538 L 123.485 44.37 L 124.009 44.205 L 124.535 44.039 L 125.063 43.874 L 125.594 43.713 L 126.127 43.552 L 126.662 43.391 L 127.199 43.232 L 127.737 43.075 L 128.28 42.917 L 128.824 42.764 L 129.372 42.61 L 129.918 42.457 L 130.471 42.305 L 131.024 42.156 L 131.58 42.005 L 132.137 41.859 L 132.699 41.711 L 133.262 41.566 L 133.827 41.422 L 134.397 41.279 L 134.968 41.137 L 135.542 40.998 L 136.117 40.86 L 136.697 40.721 L 137.277 40.585 L 137.861 40.449 L 138.448 40.316 L 139.038 40.184 L 139.629 40.05 L 140.224 39.921 L 140.822 39.792 L 141.423 39.664 L 142.027 39.536 L 142.632 39.412 L 143.241 39.287 L 143.854 39.164 L 144.469 39.042 L 145.087 38.922 L 145.708 38.803 L 146.332 38.685 L 146.961 38.568 L 147.591 38.453 L 148.225 38.337 L 148.863 38.226 L 149.502 38.115 L 150.147 38.003 L 150.794 37.893 L 151.445 37.785 L 152.099 37.679 L 152.756 37.573 L 153.418 37.469 L 154.082 37.365 L 154.749 37.263 L 155.423 37.162 L 156.099 37.063 L 156.777 36.964 L 157.461 36.868 L 158.15 36.771 L 158.841 36.677 L 159.537 36.583 L 160.236 36.49 L 160.939 36.401 L 161.648 36.31 L 162.361 36.221 L 163.079 36.135 L 163.799 36.048 L 164.525 35.963 L 165.257 35.879 L 165.992 35.796 L 166.732 35.715 L 167.478 35.635 L 168.228 35.557 L 168.983 35.479 L 169.745 35.403 L 170.511 35.329 L 171.282 35.254 L 172.059 35.182 L 172.842 35.111 L 173.632 35.04 L 174.426 34.971 L 175.226 34.904 L 176.034 34.837 L 176.848 34.771 L 177.668 34.707 L 178.495 34.645 L 179.327 34.583 L 180.169 34.523 L 181.017 34.465 L 181.872 34.406 L 182.736 34.35 L 183.606 34.293 L 184.486 34.24 L 185.373 34.186 L 186.269 34.134 L 187.176 34.084 L 188.09 34.034 L 189.015 33.986 L 189.95 33.939 L 190.894 33.895 L 191.848 33.849 L 192.813 33.806 L 193.792 33.764 L 194.78 33.723 L 195.783 33.682 L 196.798 33.645 L 197.827 33.608 L 198.868 33.572 L 199.927 33.536 L 200.999 33.503 L 202.088 33.471 L 203.195 33.44 L 204.319 33.409 L 205.464 33.381 L 206.629 33.355 L 207.815 33.327 L 209.025 33.303 L 210.258 33.278 L 211.518 33.257 L 212.81 33.236 L 214.131 33.214 L 215.486 33.197 L 216.878 33.179 L 218.31 33.161 L 219.787 33.147 L 221.316 33.133 L 222.902 33.12 L 224.555 33.108 L 226.281 33.097 L 228.098 33.088 L 230.023 33.081 L 232.083 33.075 L 234.318 33.069 L 236.792 33.064 L 239.632 33.062 L 243.147 33.06 L 250 33.059 L 256.853 33.06 L 260.368 33.062 L 263.206 33.064 L 265.682 33.069 L 267.915 33.075 L 269.975 33.081 L 271.902 33.088 L 273.719 33.097 L 275.446 33.108 L 277.098 33.12 L 278.683 33.133 L 280.213 33.147 L 281.69 33.161 L 283.122 33.179 L 284.514 33.197 L 285.869 33.214 L 287.19 33.236 L 288.48 33.257 L 289.741 33.278 L 290.975 33.303 L 292.185 33.327 L 293.371 33.355 L 294.535 33.381 L 295.679 33.409 L 296.805 33.44 L 297.91 33.471 L 299.001 33.503 L 300.073 33.536 L 301.132 33.572 L 302.173 33.608 L 303.202 33.645 L 304.217 33.682 L 305.218 33.723 L 306.208 33.764 L 307.185 33.806 L 308.152 33.849 L 309.106 33.895 L 310.05 33.939 L 310.985 33.986 L 311.91 34.034 L 312.824 34.084 L 313.729 34.134 L 314.625 34.186 L 315.514 34.24 L 316.393 34.293 L 317.264 34.35 L 318.128 34.406 L 318.984 34.465 L 319.831 34.523 L 320.673 34.583 L 321.505 34.645 L 322.332 34.707 L 323.152 34.771 L 323.966 34.837 L 324.773 34.904 L 325.573 34.971 L 326.368 35.04 L 327.158 35.111 L 327.941 35.182 L 328.717 35.254 L 329.489 35.329 L 330.255 35.403 L 331.015 35.479 L 331.772 35.557 L 332.522 35.635 L 333.268 35.715 L 334.008 35.796 L 334.743 35.879 L 335.475 35.963 L 336.201 36.048 L 336.921 36.135 L 337.639 36.221 L 338.351 36.31 L 339.059 36.401 L 339.764 36.49 L 340.463 36.583 L 341.159 36.677 L 341.85 36.771 L 342.538 36.868 L 343.223 36.964 L 343.901 37.063 L 344.577 37.162 L 345.251 37.263 L 345.918 37.365 L 346.582 37.469 L 347.244 37.573 L 347.901 37.679 L 348.555 37.785 L 349.205 37.893 L 349.853 38.003 L 350.498 38.115 L 351.137 38.226 L 351.775 38.337 L 352.409 38.453 L 353.039 38.568 L 353.666 38.685 L 354.292 38.803 L 354.913 38.922 L 355.531 39.042 L 356.146 39.164 L 356.759 39.287 L 357.368 39.412 L 357.973 39.536 L 358.577 39.664 L 359.178 39.792 L 359.776 39.921 L 360.371 40.05 L 360.962 40.184 L 361.552 40.316 L 362.139 40.449 L 362.723 40.585 L 363.303 40.721 L 363.883 40.86 L 364.458 40.998 L 365.032 41.137 L 365.603 41.279 L 366.171 41.422 L 366.738 41.566 L 367.301 41.711 L 367.863 41.859 L 368.42 42.005 L 368.976 42.156 L 369.529 42.305 L 370.08 42.457 L 370.628 42.61 L 371.176 42.764 L 371.72 42.917 L 372.262 43.075 L 372.801 43.232 L 373.338 43.391 L 373.873 43.552 L 374.406 43.713 L 374.935 43.874 L 375.466 44.039 L 375.991 44.205 L 376.515 44.37 L 377.036 44.538 L 377.555 44.707 L 378.074 44.878 L 378.59 45.048 L 379.103 45.22 L 379.613 45.394 L 380.121 45.569 L 380.628 45.746 L 381.134 45.923 L 381.635 46.102 L 382.136 46.282 L 382.636 46.463 L 383.132 46.647 L 383.628 46.83 L 384.12 47.015 L 384.61 47.202 L 385.099 47.389 L 385.586 47.579 L 386.072 47.768 L 386.555 47.959 L 387.035 48.153 L 387.514 48.346 L 387.993 48.542 L 388.467 48.736 L 388.943 48.936 L 389.413 49.134 L 389.883 49.334 L 390.35 49.536 L 390.816 49.739 L 391.282 49.943 L 391.744 50.146 L 392.204 50.354 L 392.663 50.561 L 393.12 50.772 L 393.575 50.981 L 394.029 51.194 L 394.482 51.406 L 394.932 51.62 L 395.38 51.836 L 395.826 52.052 L 396.27 52.271 L 396.714 52.489 L 397.154 52.709 L 397.595 52.93 L 398.031 53.156 L 398.468 53.379 L 398.902 53.605 L 399.336 53.831 L 399.766 54.061 L 400.197 54.289 L 400.624 54.519 L 401.05 54.751 L 401.474 54.985 L 401.897 55.221 L 402.318 55.456 L 402.738 55.693 L 403.156 55.93 L 403.573 56.172 L 403.987 56.411 L 404.4 56.653 L 404.812 56.898 L 405.221 57.142 L 405.629 57.388 L 406.036 57.636 L 406.441 57.886 L 406.843 58.136 L 407.245 58.387 L 407.646 58.639 L 408.046 58.893 L 408.44 59.148 L 408.838 59.405 L 409.23 59.662 L 409.624 59.922 L 410.015 60.183 L 410.405 60.445 L 410.792 60.707 L 411.179 60.973 L 411.563 61.238 L 411.947 61.506 L 412.328 61.773 L 412.708 62.044 L 413.088 62.315 L 413.465 62.586 L 413.84 62.861 L 414.214 63.135 L 414.588 63.411 L 414.958 63.69 L 415.328 63.967 L 415.697 64.249 L 416.063 64.53 L 416.428 64.812 L 416.793 65.097 L 417.154 65.383 L 417.516 65.671 L 417.875 65.958 L 418.232 66.248 L 418.59 66.538 L 418.945 66.831 L 419.298 67.125 L 419.65 67.421 L 420 67.717 L 420.349 68.014 L 420.698 68.313 L 421.045 68.613 L 421.39 68.916 L 421.732 69.218 L 422.076 69.523 L 422.415 69.829 L 422.754 70.136 L 423.092 70.445 L 423.429 70.756 L 423.764 71.065 L 424.096 71.379 L 424.429 71.692 L 424.76 72.007 L 425.089 72.325 L 425.417 72.644 L 425.745 72.964 L 426.069 73.284 L 426.394 73.606 L 426.716 73.931 L 427.036 74.255 L 427.356 74.583 L 427.675 74.911 L 427.991 75.24 L 428.308 75.571 L 428.621 75.902 L 428.933 76.236 L 429.244 76.571 L 429.555 76.908 L 429.864 77.246 L 430.171 77.585 L 430.477 77.924 L 430.782 78.268 L 431.084 78.61 L 431.385 78.955 L 431.687 79.302 L 431.986 79.649 L 432.283 79.998 L 432.579 80.349 L 432.875 80.702 L 433.169 81.055 L 433.462 81.41 L 433.752 81.768 L 434.042 82.125 L 434.329 82.484 L 434.617 82.846 L 434.903 83.207 L 435.186 83.572 L 435.47 83.937 L 435.751 84.303 L 436.031 84.672 L 436.31 85.042 L 436.589 85.412 L 436.865 85.784 L 437.139 86.16 L 437.414 86.535 L 437.685 86.912 L 437.956 87.291 L 438.227 87.672 L 438.494 88.053 L 438.762 88.437 L 439.027 88.821 L 439.293 89.208 L 439.555 89.595 L 439.817 89.985 L 440.078 90.376 L 440.336 90.768 L 440.595 91.162 L 440.852 91.558 L 441.107 91.954 L 441.361 92.352 L 441.613 92.755 L 441.864 93.157 L 442.114 93.559 L 442.364 93.964 L 442.61 94.371 L 442.858 94.779 L 443.102 95.188 L 443.345 95.6 L 443.587 96.013 L 443.828 96.427 L 444.068 96.844 L 444.307 97.262 L 444.544 97.682 L 444.779 98.103 L 445.016 98.524 L 445.247 98.95 L 445.481 99.376 L 445.711 99.803 L 445.939 100.234 L 446.167 100.664 L 446.395 101.098 L 446.621 101.532 L 446.844 101.967 L 447.068 102.405 L 447.291 102.846 L 447.511 103.286 L 447.729 103.73 L 447.948 104.174 L 448.164 104.62 L 448.38 105.068 L 448.594 105.518 L 448.806 105.971 L 449.017 106.425 L 449.228 106.878 L 449.437 107.337 L 449.644 107.796 L 449.852 108.256 L 450.057 108.718 L 450.261 109.184 L 450.464 109.65 L 450.666 110.117 L 450.864 110.587 L 451.064 111.057 L 451.262 111.533 L 451.458 112.007 L 451.653 112.486 L 451.847 112.965 L 452.041 113.445 L 452.232 113.928 L 452.421 114.414 L 452.611 114.901 L 452.798 115.39 L 452.985 115.88 L 453.17 116.372 L 453.353 116.867 L 453.535 117.364 L 453.718 117.862 L 453.898 118.363 L 454.077 118.866 L 454.254 119.371 L 454.431 119.878 L 454.605 120.387 L 454.778 120.897 L 454.952 121.41 L 455.122 121.926 L 455.293 122.443 L 455.462 122.964 L 455.63 123.485 L 455.795 124.009 L 455.961 124.535 L 456.124 125.063 L 456.287 125.594 L 456.448 126.127 L 456.607 126.662 L 456.768 127.199 L 456.925 127.737 L 457.081 128.28 L 457.236 128.824 L 457.39 129.372 L 457.543 129.918 L 457.695 130.471 L 457.844 131.024 L 457.995 131.58 L 458.141 132.137 L 458.289 132.699 L 458.434 133.262 L 458.578 133.827 L 458.719 134.397 L 458.861 134.968 L 459.002 135.542 L 459.14 136.117 L 459.279 136.697 L 459.415 137.277 L 459.55 137.861 L 459.684 138.448 L 459.816 139.038 L 459.948 139.629 L 460.079 140.224 L 460.208 140.822 L 460.336 141.423 L 460.464 142.027 L 460.588 142.632 L 460.713 143.241 L 460.836 143.854 L 460.958 144.469 L 461.076 145.087 L 461.197 145.708 L 461.313 146.332 L 461.43 146.961 L 461.547 147.591 L 461.663 148.225 L 461.774 148.863 L 461.885 149.502 L 461.997 150.147 L 462.107 150.794 L 462.215 151.445 L 462.321 152.099 L 462.427 152.756 L 462.531 153.418 L 462.635 154.082 L 462.737 154.749 L 462.838 155.423 L 462.937 156.099 L 463.035 156.777 L 463.132 157.461 L 463.227 158.15 L 463.323 158.841 L 463.417 159.537 L 463.51 160.236 L 463.599 160.939 L 463.69 161.648 L 463.779 162.361 L 463.865 163.079 L 463.952 163.799 L 464.037 164.525 L 464.121 165.257 L 464.204 165.992 L 464.284 166.732 L 464.365 167.478 L 464.443 168.228 L 464.521 168.983 L 464.597 169.745 L 464.671 170.511 L 464.745 171.283 L 464.818 172.059 L 464.889 172.842 L 464.96 173.632 L 465.029 174.426 L 465.096 175.226 L 465.161 176.034 L 465.227 176.848 L 465.293 177.668 L 465.355 178.495 L 465.417 179.327 L 465.477 180.169 L 465.535 181.017 L 465.594 181.872 L 465.65 182.736 L 465.707 183.606 L 465.76 184.486 L 465.814 185.373 L 465.866 186.269 L 465.916 187.176 L 465.966 188.09 L 466.014 189.015 L 466.061 189.95 L 466.105 190.894 L 466.15 191.848 L 466.194 192.813 L 466.236 193.792 L 466.277 194.78 L 466.316 195.783 L 466.355 196.798 L 466.392 197.827 L 466.428 198.868 L 466.464 199.927 L 466.497 200.999 L 466.529 202.088 L 466.559 203.195 L 466.589 204.319 L 466.617 205.464 L 466.646 206.629 L 466.673 207.815 L 466.697 209.025 L 466.72 210.258 L 466.743 211.518 L 466.764 212.81 L 466.786 214.131 L 466.803 215.486 L 466.821 216.878 L 466.837 218.31 L 466.853 219.787 L 466.867 221.317 L 466.88 222.902 L 466.892 224.555 L 466.903 226.281 L 466.912 228.098 L 466.919 230.023 L 466.925 232.083 L 466.931 234.318 L 466.934 236.792 L 466.938 239.632 L 466.94 243.147 L 466.941 250 Z" style="fill: rgb(212, 24, 114);"/>
  <text style="fill: rgb(255, 255, 255); font-family: &quot;ALS Ivolga&quot;; font-size: 262.1px; white-space: pre;" x="90.386" y="357.421">bb</text>
</svg>